<?xml version="1.0" encoding="UTF-8" standalone="no"?>
<!DOCTYPE svg PUBLIC "-//W3C//DTD SVG 20010904//EN"
              "http://www.w3.org/TR/2001/REC-SVG-20010904/DTD/svg10.dtd">

<svg xmlns="http://www.w3.org/2000/svg"
     width="135.45mm" height="135.45mm"
     viewBox="0 0 512 512">
  <path id="Selection"
        fill="none" stroke="black" stroke-width="1"
        d="M 0.00,56.00
           C 0.00,56.00 512.00,56.00 512.00,56.00
             512.00,56.00 512.00,456.00 512.00,456.00
             512.00,456.00 0.00,456.00 0.00,456.00
             0.00,456.00 0.00,56.00 0.00,56.00 Z
           M 32.00,68.78
           C 28.14,68.99 25.10,69.70 22.74,73.11
             18.15,79.71 22.96,89.18 31.00,89.37
             42.88,89.66 46.81,71.29 32.00,68.78 Z
           M 104.00,68.51
           C 100.14,69.21 97.24,70.31 95.31,74.04
             91.47,81.49 97.50,90.75 106.00,89.38
             117.82,87.47 118.87,69.61 104.00,68.51 Z
           M 65.00,69.43
           C 51.32,74.88 58.41,92.03 71.00,88.57
             77.98,86.65 80.22,77.46 75.57,72.23
             72.59,68.87 69.08,68.85 65.00,69.43 Z
           M 56.00,140.17
           C 46.48,143.12 43.98,152.88 51.11,158.49
             54.62,161.26 58.79,160.99 63.00,161.00
             63.00,161.00 108.00,161.00 108.00,161.00
             115.60,160.99 125.31,159.29 123.76,149.00
             122.49,140.58 114.75,140.01 108.00,140.17
             108.00,140.17 56.00,140.17 56.00,140.17 Z
           M 154.00,140.17
           C 142.31,143.76 142.31,156.78 152.01,160.15
             155.52,161.36 163.02,161.00 167.00,161.00
             167.00,161.00 194.00,161.00 194.00,161.00
             198.16,160.99 202.36,161.21 205.77,158.35
             210.44,154.44 210.64,144.61 202.96,141.23
             199.07,139.51 191.44,140.00 187.00,140.17
             187.00,140.17 154.00,140.17 154.00,140.17 Z
           M 199.00,191.10
           C 185.03,194.08 186.55,205.43 191.23,209.35
             194.64,212.21 198.84,211.99 203.00,212.00
             203.00,212.00 290.00,212.00 290.00,212.00
             293.59,211.99 297.78,212.23 300.89,210.15
             306.29,206.54 306.70,198.62 301.86,194.31
             298.08,190.94 291.78,191.01 287.00,191.10
             287.00,191.10 230.00,191.10 230.00,191.10
             230.00,191.10 199.00,191.10 199.00,191.10 Z
           M 54.02,192.14
           C 46.64,195.49 44.49,204.28 51.11,209.49
             54.62,212.26 58.79,211.99 63.00,212.00
             63.00,212.00 152.00,212.00 152.00,212.00
             155.68,211.99 159.62,212.23 162.84,209.99
             168.04,206.28 168.40,197.57 162.84,193.74
             160.00,191.73 156.34,192.01 153.00,192.14
             153.00,192.14 88.00,192.14 88.00,192.14
             88.00,192.14 54.02,192.14 54.02,192.14 Z
           M 54.00,243.22
           C 44.03,247.48 46.03,259.42 53.04,262.26
             55.19,263.13 58.65,263.00 61.00,263.00
             61.00,263.00 84.00,263.00 84.00,263.00
             87.85,262.99 91.67,263.33 94.77,260.57
             99.65,256.24 98.87,247.32 92.96,244.17
             90.55,242.89 87.65,243.01 85.00,243.22
             85.00,243.22 54.00,243.22 54.00,243.22 Z
           M 126.00,243.14
           C 118.41,246.49 116.51,255.49 122.23,260.57
             125.33,263.33 129.15,262.99 133.00,263.00
             133.00,263.00 187.00,263.00 187.00,263.00
             190.85,262.99 194.67,263.33 197.77,260.57
             202.65,256.24 201.87,247.32 195.96,244.17
             193.37,242.79 189.87,243.00 187.00,243.14
             187.00,243.14 148.00,243.14 148.00,243.14
             148.00,243.14 126.00,243.14 126.00,243.14 Z
           M 230.00,243.13
           C 221.14,246.32 219.91,255.47 225.39,260.35
             228.66,263.26 232.94,262.99 237.00,263.00
             237.00,263.00 320.00,263.00 320.00,263.00
             324.16,262.99 328.36,263.21 331.77,260.35
             336.45,256.43 335.85,248.19 330.89,244.74
             328.00,242.73 324.34,243.01 321.00,243.13
             321.00,243.13 262.00,243.13 262.00,243.13
             262.00,243.13 230.00,243.13 230.00,243.13 Z
           M 55.00,294.13
           C 46.00,297.37 45.01,306.75 50.28,311.57
             53.29,314.33 57.21,313.99 61.00,314.00
             61.00,314.00 145.00,314.00 145.00,314.00
             147.92,314.00 151.33,314.21 153.98,312.83
             160.70,309.32 160.96,299.95 154.89,295.74
             152.00,293.73 148.35,294.01 145.00,294.13
             145.00,294.13 87.00,294.13 87.00,294.13
             87.00,294.13 55.00,294.13 55.00,294.13 Z
           M 188.00,294.11
           C 180.32,297.48 176.69,306.74 184.21,312.26
             186.79,314.15 189.97,313.98 193.00,314.00
             193.00,314.00 235.00,314.00 235.00,314.00
             235.00,314.00 403.00,314.00 403.00,314.00
             406.34,313.99 410.00,314.27 412.89,312.26
             418.26,308.53 418.38,299.53 412.89,295.85
             409.78,293.77 405.59,294.01 402.00,294.11
             402.00,294.11 260.00,294.11 260.00,294.11
             260.00,294.11 213.00,294.11 213.00,294.11
             213.00,294.11 188.00,294.11 188.00,294.11 Z
           M 56.00,345.17
           C 46.92,348.00 44.48,357.26 50.28,362.57
             53.10,365.16 56.44,364.98 60.00,365.00
             60.00,365.00 105.00,365.00 105.00,365.00
             108.74,364.99 112.55,365.31 115.43,362.43
             119.21,358.65 119.57,349.21 111.98,346.15
             107.83,344.47 97.86,345.00 93.00,345.17
             93.00,345.17 56.00,345.17 56.00,345.17 Z
           M 148.00,345.17
           C 136.53,348.70 137.19,360.60 145.04,364.35
             148.28,365.90 152.48,365.98 156.00,366.00
             156.00,366.00 183.00,366.00 183.00,366.00
             187.23,365.99 193.36,366.02 196.89,363.42
             202.56,359.23 202.35,349.93 195.91,346.57
             191.89,344.47 184.59,345.00 180.00,345.17
             180.00,345.17 148.00,345.17 148.00,345.17 Z
           M 56.00,396.12
           C 46.48,399.12 43.98,408.88 51.11,414.49
             54.62,417.26 58.79,416.99 63.00,417.00
             63.00,417.00 137.00,417.00 137.00,417.00
             144.29,416.91 152.10,413.91 150.76,405.00
             149.65,397.66 143.28,396.08 137.00,396.12
             137.00,396.12 86.00,396.12 86.00,396.12
             86.00,396.12 56.00,396.12 56.00,396.12 Z" />
</svg>
